<svg width="25" height="35" xmlns="http://www.w3.org/2000/svg"><g fill-rule="evenodd" fill="none"><path fill="#131313" d="M19.145 1.586H17.2l2.022 2.209v1.051h-4.165v-1.23h2.022l-2.022-2.21V.353h4.088v1.233zm-4.913 0h-1.945l2.022 2.209v1.051h-4.165v-1.23h2.022l-2.022-2.21V.353h4.088v1.233zm-4.866.05H7.268v1.928h2.098v1.282h-3.59V.353h3.59v1.283zm0 0"/><path fill="#1572B6" d="M2.918 30.973L.785 6.898h23.429L22.08 30.969l-9.595 2.678-9.567-2.674zm0 0"/><path fill="#33A9DC" d="M12.5 31.6l7.752-2.164 1.824-20.57H12.5V31.6zm0 0"/><path fill="#FFF" d="M12.5 17.589h3.88l.269-3.024h-4.15v-2.953H19.855l-.07.792-.72 8.137H12.5V17.59zm0 0"/><path fill="#EBEBEB" d="M12.517 25.257l-.013.004-3.266-.888-.21-2.355H6.086l.41 4.636 6.009 1.679.013-.004v-3.072zm0 0"/><path fill="#FFF" d="M16.131 20.416l-.353 3.955-3.271.889v3.072l6.013-1.678.044-.499.51-5.739h-2.943zm0 0"/><path fill="#EBEBEB" d="M12.51 11.612V14.565H5.425l-.059-.664-.133-1.497-.07-.792h7.347zm0 0M12.5 17.589V20.542H9.274l-.058-.664-.134-1.497-.07-.792H12.5zm0 0"/></g></svg>