<?xml version="1.0" encoding="iso-8859-1"?>
<!-- Generator: Adobe Illustrator 19.0.0, SVG Export Plug-In . SVG Version: 6.00 Build 0)  -->
<svg version="1.1" id="Layer_1" xmlns="http://www.w3.org/2000/svg" xmlns:xlink="http://www.w3.org/1999/xlink" x="0px" y="0px"
	 viewBox="0 0 512 512" style="enable-background:new 0 0 512 512;" xml:space="preserve">
<path style="fill:#4D4D4D;" d="M478.242,45.011L444.484,512h33.758C496.809,512,512,496.809,512,478.242V78.769L478.242,45.011z"/>
<path style="fill:#737373;" d="M478.242,45.011v433.231c0,18.567-15.191,33.758-33.758,33.758h-11.253L256,410.725L78.769,512
	H33.758C15.191,512,0,496.809,0,478.242V33.758C0,15.191,15.191,0,33.758,0h78.769L256,118.154L399.473,0h33.758L478.242,45.011z"/>
<path style="fill:#D5F6F5;" d="M365.714,151.912V33.758h-67.516v118.154H365.714z"/>
<polygon style="fill:#DCDCDC;" points="399.473,0 399.473,185.67 365.714,185.67 286.945,92.835 365.714,0 "/>
<polygon style="fill:#EEEEEE;" points="365.714,0 365.714,33.758 331.956,92.834 365.714,151.909 365.714,185.67 112.527,185.67 
	112.527,0 "/>
<polygon style="fill:#ABECEC;" points="433.231,331.956 433.231,512 399.473,512 343.209,286.945 "/>
<polygon style="fill:#D5F6F5;" points="399.473,286.945 399.473,512 78.769,512 78.769,331.956 "/>
<polygon style="fill:#4D4D4D;" points="365.714,33.758 365.714,151.912 343.209,151.912 320.703,92.835 343.209,33.758 "/>
<rect x="298.198" y="33.758" style="fill:#737373;" width="45.011" height="118.154"/>
<path style="fill:#42C8C6;" d="M399.473,253.187h-33.758l33.758,78.769h33.758v-45.011
	C433.231,268.378,418.04,253.187,399.473,253.187z"/>
<path style="fill:#81E3E2;" d="M399.473,286.945v45.011H78.769v-45.011c0-18.567,15.191-33.758,33.758-33.758h253.187
	C384.281,253.187,399.473,268.378,399.473,286.945z"/>
<g>
	<path style="fill:#4D4D4D;" d="M343.209,407.912H168.791c-4.661,0-8.44-3.778-8.44-8.44s3.779-8.44,8.44-8.44h174.418
		c4.661,0,8.44,3.778,8.44,8.44S347.87,407.912,343.209,407.912z"/>
	<path style="fill:#4D4D4D;" d="M285.069,452.923H168.791c-4.661,0-8.44-3.778-8.44-8.44c0-4.662,3.779-8.44,8.44-8.44h116.278
		c4.661,0,8.44,3.778,8.44,8.44C293.509,449.146,289.731,452.923,285.069,452.923z"/>
</g>
<g>
</g>
<g>
</g>
<g>
</g>
<g>
</g>
<g>
</g>
<g>
</g>
<g>
</g>
<g>
</g>
<g>
</g>
<g>
</g>
<g>
</g>
<g>
</g>
<g>
</g>
<g>
</g>
<g>
</g>
</svg>
