<svg xmlns="http://www.w3.org/2000/svg" width="96" height="64">
  <defs>
    <symbol id="shield_icon">
      <path d="M6.23 4h19.5c.411 0 .766.386.722.796-.507 6.55-1.02 13.1-1.53 19.6-.017.208-.02.431-.135.613-.101.172-.281.278-.466.337-2.56.812-5.12 1.62-7.68 2.44-.217.066-.43.15-.657.176h-.017c-.241-.026-.466-.118-.696-.188-2.56-.813-5.12-1.62-7.69-2.44a.763.763 0 0 1-.546-.697c-.52-6.61-1.03-13.2-1.55-19.8-.068-.423.286-.843.715-.845"/>
    </symbol>
    <symbol id="rect_icon">
      <path d="M6 6v20h20v-20z"/>
    </symbol>
    <symbol id="html_icon">
      <path d="M9.31 8.39c.209 2.68.417 5.36.627 8.03h9.46l-.237 3.29c-1.02.275-2.05.558-3.07.827-1.03-.268-2.06-.552-3.09-.827v-2.06h-2.96c.109 1.4.219 2.8.327 4.21 1.88.596 3.76 1.2 5.64 1.79 1.88-.588 3.76-1.19 5.64-1.79l.629-8.05h-9.62l-.308-2.83h10.2c.066-.862.135-1.72.202-2.59H9.35z"/>
    </symbol>
    <symbol id="css_icon">
      <path d="M9.3 8.53c4.43.015 8.87.007 13.3-.034-.059.868-.105 1.74-.152 2.6-2.11.914-4.22 1.84-6.37 2.67 2.02.149 4.06.039 6.09.054-.213 2.74-.428 5.49-.692 8.23-1.87.403-3.66 1.08-5.54 1.45-1.78-.474-3.53-1.04-5.3-1.52-.161-1.34-.198-2.7-.376-4.04.902-.003 1.8-.003 2.7 0 .086.662-.12 1.46.215 2.04.956.315 1.94.582 2.92.792 1-.24 1.98-.577 2.97-.887-.007-1.13.117-2.26.208-3.39-3.08-.005-6.15-.008-9.23.002a52.596 52.596 0 0 0-.161-2.63c2.14-.9 4.27-1.85 6.44-2.68-2.23-.127-4.47-.015-6.7-.034-.076-.88-.252-1.75-.337-2.63z"/>
    </symbol>
    <symbol id="js_icon">
      <path d="M15 15.2c.623.004 1.25.004 1.87 0-.005 2.16.002 4.31-.004 6.46.003.716-.18 1.47-.69 2-.445.485-1.11.705-1.75.756-.771.064-1.59-.071-2.23-.534-.416-.288-.716-.708-.947-1.15l1.53-.93c.179.338.389.696.745.871.34.155.759.136 1.08-.05.319-.206.387-.623.39-.974V15.2zm4.23.589c.523-.484 1.25-.694 1.95-.687.633-.014 1.29.11 1.81.485.372.257.651.621.885 1-.485.312-.97.624-1.46.935-.205-.335-.474-.69-.885-.762-.446-.127-1.04.027-1.2.51-.153.432.088.9.486 1.1.921.502 1.98.772 2.78 1.49.788.674.98 1.84.699 2.8-.216.729-.829 1.29-1.53 1.54-.866.306-1.82.312-2.71.078-.924-.247-1.75-.889-2.16-1.76.511-.278 1.01-.585 1.51-.87.309.52.784.98 1.4 1.09.542.111 1.21.053 1.58-.409.303-.398.145-1.01-.276-1.26-.875-.548-1.94-.762-2.74-1.44-1.15-.9-1.26-2.87-.156-3.85z"/>
    </symbol>
  </defs>
  <g>
    <use href="#shield_icon" fill="#fc490b"/>
    <use href="#html_icon" fill="#fff"/>
  </g>
  <g transform="translate(32 0)">
    <use href="#shield_icon" fill="#2196f3"/>
    <use href="#css_icon" fill="#fff"/>
  </g>
  <g transform="translate(64 0)">
    <use href="#rect_icon" fill="#f7df1e"/>
    <use href="#js_icon" fill="#000"/>
  </g>
  <g transform="translate(0 32)">
    <use href="#shield_icon" fill="grey"/>
    <use href="#html_icon" fill="#1a1a1a"/>
  </g>
  <g transform="translate(32 32)">
    <use href="#shield_icon" fill="grey"/>
    <use href="#css_icon" fill="#1a1a1a"/>
  </g>
  <g transform="translate(64 32)">
    <use href="#rect_icon" fill="grey"/>
    <use href="#js_icon" fill="#1a1a1a"/>
  </g>
</svg>
