<svg fill="none" xmlns="http://www.w3.org/2000/svg" viewBox="0 0 16 16"><rect width="16" height="16" rx="2" fill="#3167FF"></rect><path d="M4.18 9.4h1.85V15h1.51V9.4h1.84V8h-5.2v1.4zm5.89 5.13c.63.39 1.55.6 2.42.6 1.6 0 2.59-.94 2.59-2.28 0-1.47-1.26-1.81-2.27-2.07-.68-.18-1.27-.33-1.27-.79 0-.42.32-.73 1.06-.73.75 0 1.5.3 2.15.86V8.45a3.94 3.94 0 00-2.16-.58c-1.52 0-2.6.87-2.6 2.21 0 1.37 1.09 1.73 2.05 1.98.78.21 1.48.33 1.48.9 0 .49-.38.76-1.06.76-.75 0-1.72-.35-2.4-.97v1.78z" fill="#fff"></path></svg>